<?xml version="1.0" encoding="utf-8"?>
<!DOCTYPE svg PUBLIC "-//W3C//DTD SVG 1.1//EN" "http://www.w3.org/Graphics/SVG/1.1/DTD/svg11.dtd">
<svg xmlns="http://www.w3.org/2000/svg" xmlns:xlink="http://www.w3.org/1999/xlink" version="1.1" baseProfile="full" width="157.333" height="107.111" viewBox="0 0 157.33 107.11" enable-background="new 0 0 157.33 107.11" xml:space="preserve">
	<path fill="#000000" fill-opacity="1" stroke-width="1.33333" stroke-linejoin="round" stroke="#FFFFFF" stroke-opacity="1" d="M 122.526,89.8048C 117.11,86.0563 113.192,80.3412 107.329,77.0835C 107.199,77.01 107.014,76.9017 106.779,76.766C 104.004,75.1467 102.044,74.1788 101.497,74.7084C 99.6354,76.5079 105.121,81.3357 106.017,82.4219C 107.658,84.4099 106.279,84.0613 106.171,86.18C 105.919,91.1188 113.404,87.0125 114.101,89.0678C 114.117,89.1153 114.108,89.1712 114.069,89.2403C 113.589,90.1266 109.604,91.5018 108.63,91.7541C 102.167,93.4255 96.4348,92.6349 91.681,91.6376C 84.6482,90.1654 78.3378,87.159 73.3982,82.9325C 73.2537,82.8084 76.4112,83.8646 78.149,84.4691C 82.594,86.019 91.5103,87.0273 92.3195,86.5727C 89.409,85.2494 86.0038,81.3613 85.451,78.5096C 87.631,80.5082 96.726,88.2286 98.7534,87.1C 100.801,85.9604 97.5847,79.412 97.4467,79.1344C 97.1513,78.5364 96.8548,77.886 96.539,77.1968C 95.59,75.1282 94.6101,72.9916 93.5091,71.8971C 92.3486,70.7445 90.1657,70.7638 88.238,70.7784C 87.3193,70.7853 86.4489,70.7934 85.7341,70.6822C 83.384,70.3225 81.2897,69.16 79.5006,67.2229C 79.4319,67.1513 81.6445,67.6517 83.0222,68.1401C 84.6051,68.7015 86.2421,69.2814 87.7987,69.1739C 89.0087,69.0883 89.836,68.6374 90.1284,67.9033C 90.4413,67.109 90.0993,66.0915 89.1882,65.1062C 87.4428,63.2239 83.377,60.7127 80.5906,61.1018C 79.648,61.235 78.8371,61.4875 78.1234,61.7109C 77.2647,61.9795 76.5225,62.2123 75.7174,62.2067C 71.3464,62.1803 67.4688,59.7477 64.8909,57.5959C 64.779,57.5024 66.5203,57.8796 67.6366,58.138C 69.7111,58.6181 71.8561,59.1164 74.0891,58.7204C 75.4739,58.4753 76.4864,57.7783 76.9431,56.7546C 77.4756,55.5575 77.2123,54.0029 76.1968,52.3749C 73.4017,47.883 67.8113,45.8708 63.5603,45.8559C 34.8314,45.7575 14.7966,60.0068 9.51678,94.3803C 4.66805,61.1856 32.246,40.2622 58.3457,41.0614L 58.5991,40.9933L 58.3941,40.8304C 55.0804,38.2007 51.5413,35.7941 48.1199,33.4653C 39.7967,27.8044 31.1979,21.9543 24.8112,12.3011C 24.6295,12.0246 36.599,22.162 43.7727,26.9872C 52.1909,32.6471 58.7547,36.227 65.0593,38.5943L 65.4717,38.751L 65.2125,38.3945C 55.8296,25.4861 52.8107,3.78331 57.4515,-5.55233C 55.9904,-0.202657 56.8025,8.28337 59.9839,16.7878C 63.2912,25.6288 68.2244,32.6885 73.1739,35.6727L 73.471,35.8515L 73.3673,35.5183C 71.34,29.0445 70.9158,22.9418 72.1084,17.3832C 73.1523,12.5114 75.4599,8.22135 78.7945,4.92839C 78.9728,4.75389 75.0806,12.9374 74.4258,17.9296C 73.6225,24.0408 75.1051,29.565 78.8341,34.3537C 80.0074,35.862 81.3217,37.1605 82.8545,38.3251L 83.4318,38.7728C 85.2273,40.1835 86.7594,41.3146 87.2919,40.8813C 87.6193,40.6127 87.4649,39.8864 86.788,38.5179C 83.8087,32.5063 82.9582,25.035 83.6147,20.6222C 83.652,20.3755 86.5468,30.6774 89.4993,34.5331C 90.3405,35.6342 91.4165,36.818 92.8787,38.2569L 93.1269,38.5057C 94.5816,39.972 96.0299,41.2848 96.7575,40.9761C 97.4898,40.6659 97.4269,38.0289 97.2923,35.1201C 97.2684,34.5672 97.2469,34.1312 97.2515,33.9034C 97.3838,27.0084 99.0522,20.7824 102.081,15.8597C 102.179,15.7016 101.764,18.5497 101.523,20.282C 100.496,27.7226 99.3313,36.1588 104.613,44.6824C 106.754,48.1415 110.455,51.2859 113.16,53.5824L 113.321,53.7207C 116.67,56.5646 119.703,59.0263 122.97,60.3749C 125.883,61.5769 130.418,60.5932 132.543,63.4088C 134.639,66.1862 131.001,70.2016 131.138,73.3894C 131.31,77.3547 133.111,81.1676 134.665,84.7553C 134.974,85.4687 135.271,86.15 135.548,86.8171C 135.264,85.8489 133.652,84.492 133.055,83.6794C 131.491,81.5472 127.588,70.612 124.795,70.815C 122.327,71.0009 123.866,74.0446 122.633,74.8548C 121.486,75.6084 120.725,73.7378 120.021,73.0288C 118.369,71.3641 117.591,72.3518 115.928,71.6086C 114.391,70.922 115.08,69.4378 113.963,68.5442C 112.365,67.2677 112.226,69.2867 111.101,69.1364C 109.65,68.9421 109.444,66.8014 108.605,65.8061C 107.119,64.0418 107.141,64.9934 105.673,65.2707C 105.096,65.3796 105.452,66.1766 104.606,66.0228C 104.008,65.9139 103.804,64.5061 103.273,64.2224C 100.238,62.602 101.127,67.9057 101.771,69.2048C 102.284,70.2375 104.122,71.1483 105.745,71.9511C 112.053,75.0693 115.788,80.7362 120.612,85.5984C 122.844,87.8479 125.33,89.0136 128.107,90.4314C 130.369,91.5871 148.54,96.9958 154.461,101.051C 150.121,99.9852 145.798,98.6683 141.546,97.3001C 136.036,95.5271 130.208,93.9981 125.041,91.3259C 124.163,90.8715 123.328,90.3597 122.526,89.8048 Z M 98.9066,53.6402C 99.3931,54.8908 99.8946,56.1841 100.728,56.9137C 101.116,57.2522 101.706,57.1572 102.276,57.0628C 102.53,57.0198 102.789,56.9775 103.028,56.9752C 104.686,56.9536 106.319,57.7049 107.9,58.4316C 109.107,58.9883 110.783,59.5018 111.361,59.6867C 112.235,58.6181 102.989,50.1932 97.4927,50.7792C 98.0951,51.5585 98.5058,52.6144 98.9066,53.6402 Z "/>
</svg>
