<?xml version="1.0" encoding="utf-8"?>
<!DOCTYPE svg PUBLIC "-//W3C//DTD SVG 1.1//EN" "http://www.w3.org/Graphics/SVG/1.1/DTD/svg11.dtd">
<svg xmlns="http://www.w3.org/2000/svg" xmlns:xlink="http://www.w3.org/1999/xlink" version="1.1" baseProfile="full" width="156" height="120.39" viewBox="0 0 156.00 120.39" enable-background="new 0 0 156.00 120.39" xml:space="preserve">
	<path fill="#FFFFFF" fill-opacity="1" stroke-width="1.33333" stroke-linejoin="round" stroke="#000000" stroke-opacity="1" d="M 118.818,103.417C 113.402,99.6684 109.484,93.9533 103.621,90.6956C 103.491,90.6222 103.306,90.5138 103.071,90.3781C 100.296,88.7589 98.3364,87.7909 97.7888,88.3204C 95.9275,90.12 101.413,94.9478 102.309,96.034C 103.95,98.0219 102.571,97.6734 102.463,99.7921C 102.211,104.731 109.697,100.625 110.393,102.68C 110.409,102.727 110.4,102.783 110.361,102.852C 109.881,103.739 105.896,105.114 104.922,105.366C 98.4593,107.038 92.7268,106.247 87.9731,105.25C 80.9403,103.777 74.6299,100.771 69.6903,96.5446C 69.5458,96.4206 72.7033,97.4767 74.4411,98.0811C 78.8861,99.631 87.8024,100.639 88.6116,100.185C 85.701,98.8615 82.2959,94.9734 81.7431,92.1217C 83.923,94.1202 93.0181,101.841 95.0455,100.712C 97.0926,99.5725 93.8768,93.0241 93.7388,92.7465C 93.4434,92.1485 93.1469,91.4981 92.8311,90.8089C 91.8821,88.7402 90.9022,86.6036 89.8012,85.5092C 88.6407,84.3566 86.4578,84.3758 84.5301,84.3905C 83.6114,84.3974 82.741,84.4055 82.0262,84.2943C 79.6761,83.9346 77.5818,82.7721 75.7927,80.835C 75.7239,80.7634 77.9365,81.2637 79.3143,81.7523C 80.8972,82.3136 82.5342,82.8935 84.0908,82.786C 85.3008,82.7004 86.1281,82.2495 86.4205,81.5154C 86.7334,80.7211 86.3914,79.7037 85.4802,78.7183C 83.7349,76.836 79.6691,74.3248 76.8827,74.7139C 75.9401,74.8471 75.1291,75.0995 74.4155,75.323C 73.5568,75.5915 72.8146,75.8243 72.0095,75.8188C 67.6384,75.7923 63.7609,73.3598 61.183,71.208C 61.0711,71.1146 62.8124,71.4918 63.9286,71.7501C 66.0032,72.2302 68.1482,72.7285 70.3812,72.3324C 71.766,72.0874 72.7785,71.3904 73.2352,70.3668C 73.7677,69.1696 73.5043,67.615 72.4889,65.987C 69.6937,61.4952 64.1034,59.4829 59.8524,59.4681C 31.1235,59.3696 11.0887,73.619 5.80887,107.992C 0.960136,74.7978 28.5381,53.8743 54.6378,54.6735L 54.8912,54.6053L 54.6862,54.4425C 51.3725,51.8128 47.8334,49.4062 44.4119,47.0774C 36.0888,41.4165 27.49,35.5664 21.1033,25.9132C 20.9215,25.6367 32.891,35.774 40.0648,40.5992C 48.4829,46.2592 55.0468,49.8391 61.3513,52.2064L 61.7638,52.3631L 61.5046,52.0065C 52.1217,39.0982 49.1028,17.3954 53.7436,8.05975C 52.2825,13.4095 53.0946,21.8955 56.276,30.3999C 59.5832,39.241 64.5164,46.3006 69.466,49.2847L 69.7631,49.4636L 69.6594,49.1303C 67.632,42.6566 67.2079,36.5538 68.4004,30.9952C 69.4444,26.1235 71.752,21.8334 75.0866,18.5405C 75.2649,18.366 71.3727,26.5494 70.7179,31.5417C 69.9145,37.6529 71.3972,43.1771 75.1262,47.9659C 76.2995,49.4741 77.6138,50.7726 79.1465,51.9372L 79.7239,52.3849C 81.5193,53.7956 83.0515,54.9267 83.584,54.4935C 83.9114,54.2247 83.757,53.4985 83.08,52.13C 80.1008,46.1185 79.2502,38.647 79.9068,34.2343C 79.9441,33.9876 82.8389,44.2896 85.7913,48.1452C 86.6326,49.2463 87.7086,50.4301 89.1708,51.869L 89.419,52.1178C 90.8737,53.5841 92.322,54.8969 93.0496,54.5882C 93.7819,54.278 93.719,51.641 93.5844,48.7321C 93.5605,48.1793 93.5389,47.7433 93.5436,47.5155C 93.6758,40.6205 95.3443,34.3945 98.3731,29.4718C 98.471,29.3137 98.0556,32.1619 97.815,33.8941C 96.7885,41.3347 95.6234,49.7708 100.905,58.2945C 103.046,61.7535 106.748,64.898 109.452,67.1944L 109.613,67.3328C 112.962,70.1766 115.995,72.6385 119.262,73.9869C 122.175,75.189 126.71,74.2054 128.835,77.0209C 130.931,79.7983 127.293,83.8138 127.431,87.0015C 127.602,90.9668 129.403,94.7797 130.957,98.3674C 131.266,99.0808 131.563,99.7621 131.84,100.429C 131.556,99.4609 129.944,98.1041 129.347,97.2914C 127.783,95.1592 123.88,84.2241 121.088,84.4272C 118.619,84.613 120.158,87.6566 118.925,88.4669C 117.779,89.2205 117.017,87.3499 116.313,86.6409C 114.661,84.9762 113.883,85.9639 112.22,85.2206C 110.683,84.534 111.372,83.05 110.255,82.1562C 108.657,80.8799 108.519,82.8988 107.393,82.7485C 105.942,82.5542 105.736,80.4135 104.897,79.4182C 103.411,77.6539 103.433,78.6055 101.965,78.8828C 101.388,78.9917 101.744,79.7887 100.898,79.6349C 100.3,79.526 100.096,78.1182 99.565,77.8345C 96.5304,76.2141 97.4189,81.5178 98.0626,82.817C 98.5764,83.8495 100.414,84.7603 102.037,85.5631C 108.346,88.6814 112.08,94.3483 116.904,99.2104C 119.136,101.46 121.622,102.626 124.399,104.043C 126.662,105.199 144.832,110.608 150.753,114.663C 146.413,113.597 142.09,112.28 137.838,110.912C 132.328,109.139 126.5,107.61 121.333,104.938C 120.455,104.484 119.62,103.972 118.818,103.417 Z M 95.1987,67.2523C 95.6851,68.5029 96.1867,69.7962 97.0204,70.5258C 97.4078,70.8643 97.9979,70.7693 98.5683,70.675C 98.8223,70.6319 99.0815,70.5896 99.3204,70.5873C 100.978,70.5657 102.611,71.317 104.192,72.0437C 105.399,72.6004 107.076,73.1139 107.653,73.2989C 108.527,72.2302 99.2813,63.8053 93.7848,64.3913C 94.3872,65.1706 94.7979,66.2265 95.1987,67.2523 Z "/>
</svg>
