<?xml version="1.0" encoding="utf-8"?>
<!DOCTYPE svg PUBLIC "-//W3C//DTD SVG 1.1//EN" "http://www.w3.org/Graphics/SVG/1.1/DTD/svg11.dtd">
<svg xmlns="http://www.w3.org/2000/svg" xmlns:xlink="http://www.w3.org/1999/xlink" version="1.1" baseProfile="full" width="515.556" height="200" viewBox="0 0 515.56 200.00" enable-background="new 0 0 515.56 200.00" xml:space="preserve">
	<path fill="#000000" fill-opacity="1" stroke-linejoin="round" stroke="#FFFFFF" stroke-opacity="1" d="M 110.234,138.455C 109.545,140.887 106.433,141.165 104.44,142.437C 111.88,144.472 116.452,137.484 122.086,136.113C 142.382,131.172 157.911,146.195 176.867,145.716C 160.184,141.033 144.381,135.57 129.197,129.554C 125.86,122.978 134.838,120.553 140.259,118.781C 127.52,117.296 122.227,122.63 120.242,131.429C 118.433,139.451 105.246,132.996 107.074,125.105C 109.442,114.876 137.824,117.16 150.53,113.863C 153.029,113.214 156.692,112.031 158.695,110.35C 137.164,113.573 107.159,108.552 98.1189,123.231C 112.038,124.196 100.608,138.499 93.3789,139.392C 99.3241,142.444 105.505,133.703 110.234,138.455 Z "/>
	<path fill="#000000" fill-opacity="1" stroke-width="1.33333" stroke-linejoin="round" stroke="#FFFFFF" stroke-opacity="1" d="M 180.554,151.805C 161.607,149.494 145.747,136.302 126.299,139.158C 117.901,140.391 114.153,147.63 103.386,147.121C 105.992,152.413 112.889,155.015 120.242,155.318C 119.086,152.333 112.441,153.268 112.341,149.931C 112.249,146.86 116.627,148.385 118.925,149.228C 124.892,151.421 131.255,158.278 133.411,162.345C 140.288,168.563 153.218,169.4 158.695,176.866C 154.331,166.011 136.973,164.156 134.201,151.571C 133.611,148.892 134.535,146.085 136.572,145.247C 145.259,141.676 158.778,147.884 162.119,152.04C 167.686,158.968 148.36,161.016 143.945,157.895C 157.216,170.458 193.28,163.987 211.37,172.884C 207.084,165.808 187.063,167.361 181.608,161.173C 177.776,156.828 192.684,156.497 198.201,156.724C 212.448,157.309 231.125,150.722 245.871,146.184C 234.69,147.096 226.414,150.548 216.11,151.805C 204.913,153.171 191.731,153.169 180.554,151.805 Z "/>
	<path fill="#000000" fill-opacity="1" stroke-width="1.33333" stroke-linejoin="round" stroke="#FFFFFF" stroke-opacity="1" d="M 237.179,110.817C 221.263,119.538 194.629,118.729 172.39,121.825C 169.132,131.1 153.782,132.339 142.366,130.961C 142.366,131.195 142.366,131.429 142.366,131.663C 148.692,133.688 154.1,136.53 160.801,138.221C 159.467,130.67 175.456,125.801 184.768,124.402C 188.434,123.852 190.44,125.192 192.407,126.042C 205.557,119.391 227.011,120.121 237.179,110.817 Z "/>
	<path fill="#000000" fill-opacity="1" stroke-width="1.33333" stroke-linejoin="round" stroke="#FFFFFF" stroke-opacity="1" d="M 209.526,145.95C 203.524,146.972 196.467,147.086 190.562,147.355C 190.519,147.627 190.621,147.772 190.826,147.823C 227.342,153.837 249.022,134.839 270.629,122.997C 257.012,126.581 247.103,133.462 235.599,138.923C 247.732,130.262 258.583,120.159 271.154,111.754C 277.235,107.69 284.311,104.83 290.38,100.513C 267.001,107.136 254.435,124.586 229.015,128.618C 236.763,137.561 220.427,144.093 209.526,145.95 Z "/>
	<path fill="#000000" fill-opacity="1" stroke-linejoin="round" stroke="#FFFFFF" stroke-opacity="1" d="M 30.2892,155.113C 29.6,152.682 26.4881,152.404 24.4956,151.132C 31.9355,149.097 36.5077,156.085 42.141,157.455C 62.4372,162.396 77.9664,147.374 96.922,147.853C 80.2396,152.535 64.4365,157.999 49.253,164.014C 45.9158,170.59 54.8931,173.015 60.3141,174.788C 47.5756,176.272 42.2825,170.939 40.2973,162.14C 38.488,154.118 25.3018,160.573 27.1293,168.464C 29.4979,178.693 57.8799,176.409 70.5853,179.706C 73.0844,180.355 76.7475,181.538 78.7502,183.219C 57.2191,179.996 27.2145,185.016 18.1743,170.338C 32.0938,169.373 20.6633,155.07 13.4344,154.177C 19.3796,151.125 25.5601,159.865 30.2892,155.113 Z "/>
	<path fill="#000000" fill-opacity="1" stroke-width="1.33333" stroke-linejoin="round" stroke="#FFFFFF" stroke-opacity="1" d="M 100.609,141.764C 81.6619,144.075 65.8021,157.267 46.3548,154.411C 37.9565,153.178 34.208,145.939 23.4418,146.448C 26.0478,141.156 32.9446,138.554 40.2973,138.251C 39.1414,141.236 32.4969,140.301 32.3968,143.638C 32.3041,146.709 36.6829,145.184 38.9805,144.34C 44.9473,142.147 51.3104,135.291 53.4667,131.224C 60.3439,125.006 73.2738,124.168 78.7502,116.703C 74.3864,127.558 57.0284,129.413 54.2567,141.998C 53.6662,144.677 54.5901,147.484 56.6273,148.322C 65.3144,151.893 78.8335,145.685 82.174,141.529"/>
	<path fill="#000000" fill-opacity="1" stroke-width="1.33333" stroke-linejoin="round" stroke="#FFFFFF" stroke-opacity="1" d="M 91.9834,161.698C 93.0612,150.304 74.0062,161.386 64.7306,162.506C 64.7306,162.272 64.7306,162.038 64.7306,161.803C 71.0572,159.778 93.9103,149.234 101.126,149.601C 103.91,155.145 109.072,157.133 118.384,158.532"/>
	<g>
		<path fill="#000000" fill-opacity="1" stroke-linejoin="round" stroke="#FFFFFF" stroke-opacity="1" d="M 103.243,94.8956C 103.243,105.111 101.132,114.141 96.9091,121.986C 92.6866,129.831 86.6528,135.887 78.8078,140.154C 70.9628,144.422 61.9178,146.556 51.6728,146.556L 9.64285,146.556L 9.64285,45.7556L 50.7728,45.7556C 85.7528,45.7556 103.243,62.1356 103.243,94.8956 Z M 71.5628,95.1881C 71.5628,90.4031 70.5878,86.0981 68.6378,82.2731C 66.6878,78.4481 63.9053,75.4856 60.2903,73.3856C 56.6753,71.2856 52.4153,70.2356 47.5103,70.2356L 39.8828,70.2356L 39.8828,122.076L 48.2078,122.076C 55.3028,122.076 60.9691,119.649 65.2066,114.797C 69.4441,109.944 71.5628,103.408 71.5628,95.1881 Z "/>
		<path fill="#000000" fill-opacity="1" stroke-linejoin="round" stroke="#FFFFFF" stroke-opacity="1" d="M 150.283,114.876C 149.523,114.636 148.495,114.416 147.2,114.216C 145.905,114.016 144.828,113.916 143.968,113.916C 137.298,113.916 133.963,117.776 133.963,125.496L 133.963,146.556L 113.803,146.556L 113.803,98.5556L 133.963,98.5556L 133.963,107.196L 134.158,107.196C 135.388,104.056 137.14,101.671 139.415,100.041C 141.69,98.4106 144.348,97.5956 147.388,97.5956C 148.498,97.5956 149.463,97.7756 150.283,98.1356L 150.283,114.876 Z "/>
		<path fill="#000000" fill-opacity="1" stroke-linejoin="round" stroke="#FFFFFF" stroke-opacity="1" d="M 182.923,146.556L 182.923,138.876L 182.728,138.876C 179.498,144.636 174.548,147.516 167.878,147.516C 163.278,147.516 159.675,146.178 157.07,143.503C 154.465,140.828 153.163,137.246 153.163,132.756C 153.163,123.356 159.053,117.911 170.833,116.421L 182.923,114.876C 182.923,113.196 182.215,111.816 180.8,110.736C 179.385,109.656 177.483,109.116 175.093,109.116C 169.683,109.116 163.973,110.716 157.963,113.916L 157.963,101.331C 160.563,100.231 163.825,99.3331 167.75,98.6381C 171.675,97.9431 175.033,97.5956 177.823,97.5956C 186.013,97.5956 191.95,99.3305 195.635,102.801C 199.32,106.271 201.163,112.066 201.163,120.186L 201.163,146.556L 182.923,146.556 Z M 171.403,130.371C 171.403,131.731 171.808,132.848 172.618,133.723C 173.428,134.598 174.578,135.036 176.068,135.036C 178.108,135.036 179.76,134.226 181.025,132.606C 182.29,130.986 182.923,128.911 182.923,126.381L 182.923,124.476L 176.338,125.451C 173.048,126.031 171.403,127.671 171.403,130.371 Z "/>
		<path fill="#000000" fill-opacity="1" stroke-linejoin="round" stroke="#FFFFFF" stroke-opacity="1" d="M 261.643,140.136C 261.643,149.426 258.795,156.658 253.1,161.833C 247.405,167.008 239.088,169.596 228.148,169.596C 225.208,169.596 222.355,169.358 219.59,168.883C 216.825,168.408 214.843,167.866 213.643,167.256L 213.643,151.356C 215.563,152.806 217.815,153.968 220.4,154.843C 222.985,155.718 225.283,156.156 227.293,156.156C 231.583,156.156 235.02,155.033 237.605,152.788C 240.19,150.543 241.483,147.571 241.483,143.871L 241.483,140.796L 241.303,140.796C 239.893,142.836 237.953,144.466 235.483,145.686C 233.013,146.906 230.373,147.516 227.563,147.516C 221.493,147.516 216.695,145.386 213.17,141.126C 209.645,136.866 207.883,130.986 207.883,123.486C 207.883,118.346 208.803,113.808 210.643,109.873C 212.483,105.938 215.04,102.908 218.315,100.783C 221.59,98.6581 225.208,97.5956 229.168,97.5956C 234.588,97.5956 238.633,99.5156 241.303,103.356L 241.483,103.356L 241.483,98.5556L 261.643,98.5556L 261.643,140.136 Z M 241.798,121.191C 241.798,118.381 241.19,116.146 239.975,114.486C 238.76,112.826 237.148,111.996 235.138,111.996C 232.988,111.996 231.268,112.996 229.978,114.996C 228.688,116.996 228.043,119.671 228.043,123.021C 228.043,126.121 228.583,128.578 229.663,130.393C 230.743,132.208 232.453,133.116 234.793,133.116C 236.973,133.116 238.685,132.186 239.93,130.326C 241.175,128.466 241.798,125.971 241.798,122.841L 241.798,121.191 Z "/>
		<path fill="#000000" fill-opacity="1" stroke-linejoin="round" stroke="#FFFFFF" stroke-opacity="1" d="M 324.903,121.816C 324.903,129.846 322.45,136.153 317.545,140.738C 312.64,145.323 305.783,147.616 296.973,147.616C 288.223,147.616 281.41,145.376 276.535,140.896C 271.66,136.416 269.223,130.241 269.223,122.371C 269.223,117.321 270.368,112.938 272.658,109.223C 274.948,105.508 278.208,102.658 282.438,100.673C 286.668,98.6881 291.543,97.6955 297.063,97.6955C 302.773,97.6955 307.72,98.7331 311.905,100.808C 316.09,102.883 319.303,105.766 321.543,109.456C 323.783,113.146 324.903,117.266 324.903,121.816 Z M 304.743,121.906C 304.743,115.366 302.183,112.096 297.063,112.096C 291.943,112.096 289.383,115.521 289.383,122.371C 289.383,129.601 291.973,133.216 297.153,133.216C 302.213,133.216 304.743,129.446 304.743,121.906 Z "/>
		<path fill="#000000" fill-opacity="1" stroke-linejoin="round" stroke="#FFFFFF" stroke-opacity="1" d="M 362.443,146.556L 362.443,120.336C 362.443,117.366 362.02,115.233 361.175,113.938C 360.33,112.643 358.963,111.996 357.073,111.996C 355.443,111.996 354.17,112.668 353.255,114.013C 352.34,115.358 351.883,117.076 351.883,119.166L 351.883,146.556L 331.723,146.556L 331.723,98.5556L 351.883,98.5556L 351.883,106.236L 352.063,106.236C 353.643,103.496 355.758,101.371 358.408,99.8606C 361.058,98.3506 363.943,97.5956 367.063,97.5956C 377.423,97.5956 382.603,104.191 382.603,117.381L 382.603,146.556L 362.443,146.556 Z "/>
		<path fill="#000000" fill-opacity="1" stroke-linejoin="round" stroke="#FFFFFF" stroke-opacity="1" d="M 394.123,146.556L 394.123,79.3556L 414.283,79.3556L 414.283,130.236L 437.323,130.236L 437.323,146.556L 394.123,146.556 Z "/>
		<path fill="#000000" fill-opacity="1" stroke-linejoin="round" stroke="#FFFFFF" stroke-opacity="1" d="M 508.363,112.116C 508.363,118.926 506.955,124.946 504.14,130.176C 501.325,135.406 497.303,139.443 492.073,142.288C 486.843,145.133 480.813,146.556 473.983,146.556L 445.963,146.556L 445.963,79.3556L 473.383,79.3556C 496.703,79.3556 508.363,90.2756 508.363,112.116 Z M 487.243,112.311C 487.243,109.121 486.593,106.251 485.293,103.701C 483.993,101.151 482.138,99.1756 479.728,97.7756C 477.318,96.3756 474.478,95.6756 471.208,95.6756L 466.123,95.6756L 466.123,130.236L 471.673,130.236C 476.403,130.236 480.18,128.618 483.005,125.383C 485.83,122.148 487.243,117.791 487.243,112.311 Z "/>
	</g>
	<path fill="#000000" fill-opacity="1" stroke-width="1.33333" stroke-linejoin="round" stroke="#FFFFFF" stroke-opacity="1" d="M 258.755,141.56C 257.396,141.63 242.238,145.608 239.299,148.46C 239.141,148.352 238.62,147.32 238.691,147.192C 244.075,143.716 252.735,141.013 258.51,138.29C 266.255,134.636 280.931,126.114 288.82,122.281C 283.653,128.892 274.755,131.744 270.678,136.208C 280.809,134.195 282.943,130.248 293.153,127.892C 298.091,126.752 288.343,128.907 293.403,127.892C 278.962,136.549 278.383,134.56 264.281,145.476C 263.445,137.321 269.791,135.103 258.755,141.56 Z "/>
	<path fill="#000000" fill-opacity="1" stroke-linejoin="round" stroke="#FFFFFF" stroke-opacity="1" d="M 324.91,121.802C 324.91,129.832 322.457,136.14 317.552,140.725C 312.647,145.31 305.79,147.602 296.979,147.602C 288.229,147.602 281.417,145.362 276.542,140.882C 271.667,136.402 269.229,130.227 269.229,122.357C 269.229,117.307 270.375,112.925 272.665,109.21C 274.954,105.495 278.215,102.645 282.444,100.66C 286.675,98.6748 291.55,97.6822 297.069,97.6822C 302.78,97.6822 307.727,98.7198 311.912,100.795C 316.097,102.87 319.31,105.752 321.55,109.442C 323.79,113.132 324.91,117.252 324.91,121.802 Z M 304.75,121.892C 304.75,115.352 302.189,112.082 297.069,112.082C 291.949,112.082 289.39,115.507 289.39,122.357C 289.39,129.587 291.979,133.202 297.16,133.202C 302.22,133.202 304.75,129.432 304.75,121.892 Z "/>
	<path fill="#000000" fill-opacity="1" stroke-width="1.33333" stroke-linejoin="round" stroke="#FFFFFF" stroke-opacity="1" d="M 307.988,139.583C 307.966,139.502 298.8,110.236 281.967,120.486C 275.654,124.33 276.307,122.979 276.307,122.979L 279.446,119.764C 279.446,119.764 288.311,110.337 298.467,118.319C 300.057,119.569 301.953,123.173 303.391,124.944C 303.391,124.944 306.884,128.403 307.634,121.319C 307.634,121.319 320.55,141.569 323.3,142.069C 323.3,142.069 311.202,133.703 309.731,130.903C 308.286,128.153 305.8,127.236 306.217,130.653C 306.634,134.069 308.245,139.437 307.967,139.569"/>
	<path fill="#000000" fill-opacity="1" stroke-linejoin="round" stroke="#FFFFFF" stroke-opacity="1" d="M 296.93,147.55C 288.18,147.55 281.367,145.31 276.492,140.83C 271.617,136.35 269.18,130.175 269.18,122.305C 269.18,117.254 270.325,112.872 272.615,109.157C 274.905,105.442 278.165,102.592 282.395,100.607C 286.625,98.622 291.5,97.6295 297.02,97.6295M 297.019,112.03C 291.899,112.03 289.339,115.455 289.339,122.305C 289.339,129.535 291.929,133.15 297.109,133.15"/>
	<path fill="#FFFFFF" fill-opacity="1" stroke-width="0.2" stroke-linejoin="round" d="M 295.937,120.01L 295.938,132.559L 297.604,132.837L 297.167,120.76"/>
	<path fill="#FFFFFF" fill-opacity="1" stroke-width="0.2" stroke-linejoin="round" d="M 296.563,112.302L 297.438,112.406L 297.396,118.344L 296.646,117.844L 296.563,112.302 Z "/>
	<g>
		<path fill="#000000" fill-opacity="1" stroke-linejoin="round" stroke="#FFFFFF" stroke-opacity="1" d="M 103.252,94.8871C 103.252,105.102 101.141,114.132 96.9186,121.977C 92.6961,129.822 86.6623,135.878 78.8173,140.146C 70.9723,144.413 61.9273,146.547 51.6823,146.547L 9.65235,146.547L 9.65235,45.7471L 50.7823,45.7471C 85.7623,45.7471 103.252,62.1271 103.252,94.8871 Z M 71.5723,95.1795C 71.5723,90.3945 70.5973,86.0895 68.6473,82.2646C 66.6973,78.4396 63.9148,75.477 60.2998,73.3771C 56.6848,71.277 52.4249,70.227 47.5199,70.227L 39.8923,70.227L 39.8923,122.067L 48.2173,122.067C 55.3123,122.067 60.9786,119.641 65.2161,114.788C 69.4536,109.936 71.5723,103.4 71.5723,95.1795 Z "/>
		<path fill="#000000" fill-opacity="1" stroke-linejoin="round" stroke="#FFFFFF" stroke-opacity="1" d="M 150.292,114.867C 149.532,114.627 148.505,114.407 147.21,114.207C 145.915,114.007 144.837,113.907 143.977,113.907C 137.307,113.907 133.972,117.767 133.972,125.487L 133.972,146.547L 113.812,146.547L 113.812,98.547L 133.972,98.547L 133.972,107.187L 134.167,107.187C 135.397,104.047 137.15,101.662 139.425,100.032C 141.7,98.4021 144.357,97.587 147.397,97.587C 148.507,97.587 149.472,97.7671 150.292,98.1271L 150.292,114.867 Z "/>
		<path fill="#000000" fill-opacity="1" stroke-linejoin="round" stroke="#FFFFFF" stroke-opacity="1" d="M 182.932,146.547L 182.932,138.867L 182.737,138.867C 179.507,144.627 174.557,147.507 167.887,147.507C 163.287,147.507 159.685,146.17 157.08,143.495C 154.475,140.82 153.172,137.237 153.172,132.747C 153.172,123.347 159.062,117.902 170.842,116.412L 182.932,114.867C 182.932,113.187 182.225,111.807 180.81,110.727C 179.395,109.647 177.492,109.107 175.102,109.107C 169.692,109.107 163.982,110.707 157.972,113.907L 157.972,101.322C 160.572,100.222 163.835,99.3246 167.76,98.6296C 171.685,97.9345 175.042,97.587 177.832,97.587C 186.022,97.587 191.96,99.322 195.645,102.792C 199.33,106.262 201.172,112.057 201.172,120.177L 201.172,146.547L 182.932,146.547 Z M 171.412,130.362C 171.412,131.722 171.817,132.84 172.627,133.715C 173.437,134.59 174.587,135.027 176.077,135.027C 178.117,135.027 179.77,134.217 181.035,132.597C 182.3,130.977 182.932,128.902 182.932,126.372L 182.932,124.467L 176.347,125.442C 173.057,126.022 171.412,127.662 171.412,130.362 Z "/>
		<path fill="#000000" fill-opacity="1" stroke-linejoin="round" stroke="#FFFFFF" stroke-opacity="1" d="M 261.652,140.127C 261.652,149.417 258.805,156.65 253.11,161.825C 247.415,167 239.097,169.587 228.157,169.587C 225.217,169.587 222.365,169.35 219.6,168.875C 216.835,168.4 214.852,167.857 213.652,167.247L 213.652,151.347C 215.572,152.797 217.825,153.96 220.41,154.835C 222.995,155.71 225.292,156.147 227.302,156.147C 231.592,156.147 235.03,155.025 237.615,152.78C 240.2,150.535 241.492,147.562 241.492,143.862L 241.492,140.787L 241.312,140.787C 239.902,142.827 237.962,144.457 235.492,145.677C 233.022,146.897 230.382,147.507 227.572,147.507C 221.502,147.507 216.705,145.377 213.18,141.117C 209.655,136.857 207.892,130.977 207.892,123.477C 207.892,118.337 208.812,113.8 210.652,109.865C 212.492,105.93 215.05,102.9 218.325,100.775C 221.6,98.6495 225.217,97.587 229.177,97.587C 234.597,97.587 238.642,99.5071 241.312,103.347L 241.492,103.347L 241.492,98.547L 261.652,98.547L 261.652,140.127 Z M 241.807,121.182C 241.807,118.372 241.2,116.137 239.985,114.477C 238.77,112.817 237.157,111.987 235.147,111.987C 232.997,111.987 231.277,112.987 229.987,114.987C 228.697,116.987 228.052,119.662 228.052,123.012C 228.052,126.112 228.592,128.57 229.672,130.385C 230.752,132.2 232.462,133.107 234.802,133.107C 236.982,133.107 238.695,132.177 239.94,130.317C 241.185,128.457 241.807,125.962 241.807,122.832L 241.807,121.182 Z "/>
		<path fill="#000000" fill-opacity="1" stroke-linejoin="round" stroke="#FFFFFF" stroke-opacity="1" d="M 362.452,146.547L 362.452,120.327C 362.452,117.357 362.03,115.225 361.185,113.93C 360.34,112.634 358.972,111.987 357.082,111.987C 355.452,111.987 354.18,112.66 353.265,114.005C 352.35,115.35 351.892,117.067 351.892,119.157L 351.892,146.547L 331.732,146.547L 331.732,98.547L 351.892,98.547L 351.892,106.227L 352.072,106.227C 353.652,103.487 355.767,101.362 358.417,99.852C 361.067,98.342 363.952,97.587 367.072,97.587C 377.432,97.587 382.612,104.182 382.612,117.372L 382.612,146.547L 362.452,146.547 Z "/>
		<path fill="#000000" fill-opacity="1" stroke-linejoin="round" stroke="#FFFFFF" stroke-opacity="1" d="M 394.132,146.547L 394.132,79.347L 414.292,79.347L 414.292,130.227L 437.332,130.227L 437.332,146.547L 394.132,146.547 Z "/>
		<path fill="#000000" fill-opacity="1" stroke-linejoin="round" stroke="#FFFFFF" stroke-opacity="1" d="M 508.372,112.107C 508.372,118.917 506.965,124.937 504.15,130.167C 501.335,135.397 497.312,139.435 492.082,142.28C 486.852,145.125 480.822,146.547 473.992,146.547L 445.972,146.547L 445.972,79.347L 473.392,79.347C 496.712,79.347 508.372,90.2671 508.372,112.107 Z M 487.252,112.302C 487.252,109.112 486.602,106.242 485.302,103.692C 484.002,101.142 482.147,99.167 479.737,97.7671C 477.327,96.367 474.487,95.667 471.217,95.667L 466.132,95.667L 466.132,130.227L 471.682,130.227C 476.412,130.227 480.19,128.61 483.015,125.375C 485.84,122.14 487.252,117.782 487.252,112.302 Z "/>
	</g>
	<path fill="#000000" fill-opacity="1" stroke-width="1.33333" stroke-linejoin="round" stroke="#FFFFFF" stroke-opacity="1" d="M 297.376,130.287C 295.306,153.645 313.179,165.429 327.149,185.724C 322.204,172.54 314.355,163.38 307.755,152.488C 317.602,163.682 328.752,173.453 338.387,185.108C 343.047,190.746 346.609,197.495 351.519,203.096C 342.561,180.509 320.141,169.138 313.554,144.258C 305.443,152.872 300.373,139.126 297.422,128.469"/>
	<path fill="#000000" fill-opacity="1" stroke-width="1.33333" stroke-linejoin="round" stroke="#FFFFFF" stroke-opacity="1" d="M 122.526,89.8048C 117.11,86.0563 113.192,80.3412 107.329,77.0835C 107.199,77.01 107.014,76.9017 106.779,76.766C 104.004,75.1467 102.044,74.1788 101.497,74.7084C 99.6354,76.5079 105.121,81.3357 106.017,82.4219C 107.658,84.4099 106.279,84.0613 106.171,86.18C 105.919,91.1188 113.404,87.0125 114.101,89.0678C 114.117,89.1153 114.108,89.1712 114.069,89.2403C 113.589,90.1266 109.604,91.5018 108.63,91.7541C 102.167,93.4255 96.4348,92.6349 91.681,91.6376C 84.6482,90.1654 78.3378,87.159 73.3982,82.9325C 73.2537,82.8084 76.4112,83.8646 78.149,84.4691C 82.594,86.019 91.5103,87.0273 92.3195,86.5727C 89.409,85.2494 86.0038,81.3613 85.451,78.5096C 87.631,80.5082 96.726,88.2286 98.7534,87.1C 100.801,85.9604 97.5847,79.412 97.4467,79.1344C 97.1513,78.5364 96.8548,77.886 96.539,77.1968C 95.59,75.1282 94.6101,72.9916 93.5091,71.8971C 92.3486,70.7445 90.1657,70.7638 88.238,70.7784C 87.3193,70.7853 86.4489,70.7934 85.7341,70.6822C 83.384,70.3225 81.2897,69.16 79.5006,67.2229C 79.4319,67.1513 81.6445,67.6517 83.0222,68.1401C 84.6051,68.7015 86.2421,69.2814 87.7987,69.1739C 89.0087,69.0883 89.836,68.6374 90.1284,67.9033C 90.4413,67.109 90.0993,66.0915 89.1882,65.1062C 87.4428,63.2239 83.377,60.7127 80.5906,61.1018C 79.648,61.235 78.8371,61.4875 78.1234,61.7109C 77.2647,61.9795 76.5225,62.2123 75.7174,62.2067C 71.3464,62.1803 67.4688,59.7477 64.8909,57.5959C 64.779,57.5024 66.5203,57.8796 67.6366,58.138C 69.7111,58.6181 71.8561,59.1164 74.0891,58.7204C 75.4739,58.4753 76.4864,57.7783 76.9431,56.7546C 77.4756,55.5575 77.2123,54.0029 76.1968,52.3749C 73.4017,47.883 67.8113,45.8708 63.5603,45.8559C 34.8314,45.7575 14.7966,60.0068 9.51678,94.3803C 4.66805,61.1856 32.246,40.2622 58.3457,41.0614L 58.5991,40.9933L 58.3941,40.8304C 55.0804,38.2007 51.5413,35.7941 48.1199,33.4653C 39.7967,27.8044 31.1979,21.9543 24.8112,12.3011C 24.6295,12.0246 36.599,22.162 43.7727,26.9872C 52.1909,32.6471 58.7547,36.227 65.0593,38.5943L 65.4717,38.751L 65.2125,38.3945C 55.8296,25.4861 52.8107,3.7833 57.4515,-5.55233C 55.9904,-0.202657 56.8025,8.28337 59.9839,16.7878C 63.2912,25.6288 68.2244,32.6885 73.1739,35.6727L 73.471,35.8515L 73.3673,35.5183C 71.34,29.0445 70.9158,22.9418 72.1084,17.3832C 73.1523,12.5114 75.4599,8.22135 78.7945,4.92839C 78.9728,4.75389 75.0806,12.9374 74.4258,17.9296C 73.6225,24.0408 75.1051,29.565 78.8341,34.3537C 80.0074,35.862 81.3217,37.1605 82.8545,38.3251L 83.4318,38.7728C 85.2273,40.1835 86.7594,41.3146 87.2919,40.8813C 87.6193,40.6127 87.4649,39.8864 86.788,38.5179C 83.8087,32.5063 82.9582,25.035 83.6147,20.6222C 83.652,20.3755 86.5468,30.6774 89.4993,34.5331C 90.3405,35.6342 91.4165,36.818 92.8787,38.2569L 93.1269,38.5057C 94.5816,39.972 96.0299,41.2848 96.7575,40.9761C 97.4898,40.6659 97.4269,38.0289 97.2923,35.1201C 97.2684,34.5672 97.2469,34.1312 97.2515,33.9034C 97.3838,27.0084 99.0522,20.7824 102.081,15.8597C 102.179,15.7016 101.764,18.5497 101.523,20.282C 100.496,27.7226 99.3313,36.1588 104.613,44.6824C 106.754,48.1415 110.455,51.2859 113.16,53.5824L 113.321,53.7207C 116.67,56.5646 119.703,59.0263 122.97,60.3749C 125.883,61.5769 130.418,60.5932 132.543,63.4088C 134.639,66.1862 131.001,70.2016 131.138,73.3894C 131.31,77.3547 133.111,81.1676 134.665,84.7553C 134.974,85.4687 135.271,86.15 135.548,86.8171C 135.264,85.8489 133.652,84.492 133.055,83.6794C 131.491,81.5472 127.588,70.612 124.795,70.815C 122.327,71.0009 123.866,74.0446 122.633,74.8548C 121.486,75.6084 120.725,73.7378 120.021,73.0288C 118.369,71.3641 117.591,72.3518 115.928,71.6086C 114.391,70.922 115.08,69.4378 113.963,68.5442C 112.365,67.2677 112.226,69.2867 111.101,69.1364C 109.65,68.9421 109.444,66.8014 108.605,65.8061C 107.119,64.0418 107.141,64.9934 105.673,65.2707C 105.096,65.3796 105.452,66.1766 104.606,66.0228C 104.008,65.9139 103.804,64.5061 103.273,64.2224C 100.238,62.602 101.127,67.9057 101.771,69.2048C 102.284,70.2375 104.122,71.1483 105.745,71.9511C 112.053,75.0693 115.788,80.7362 120.612,85.5984C 122.844,87.8479 125.33,89.0136 128.107,90.4314C 130.369,91.5871 148.54,96.9958 154.461,101.051C 150.121,99.9852 145.798,98.6683 141.546,97.3001C 136.036,95.5271 130.208,93.9981 125.041,91.3259C 124.163,90.8715 123.328,90.3597 122.526,89.8048 Z M 98.9066,53.6402C 99.3931,54.8908 99.8946,56.1841 100.728,56.9137C 101.116,57.2522 101.706,57.1572 102.276,57.0628C 102.53,57.0198 102.789,56.9775 103.028,56.9752C 104.686,56.9536 106.319,57.7049 107.9,58.4316C 109.107,58.9883 110.783,59.5018 111.361,59.6867C 112.235,58.6181 102.989,50.1932 97.4927,50.7792C 98.0951,51.5585 98.5058,52.6144 98.9066,53.6402 Z "/>
</svg>
